<?xml version="1.0" standalone="no"?>
<!DOCTYPE svg PUBLIC "-//W3C//DTD SVG 20010904//EN"
 "http://www.w3.org/TR/2001/REC-SVG-20010904/DTD/svg10.dtd">
<svg version="1.0" xmlns="http://www.w3.org/2000/svg"
 width="284.000000pt" height="284.000000pt" viewBox="0 0 284.000000 284.000000"
 preserveAspectRatio="xMidYMid meet">
<metadata>
Created by potrace 1.11, written by Peter Selinger 2001-2013
</metadata>
<g transform="translate(0.000000,284.000000) scale(0.100000,-0.100000)"
fill="#000000" stroke="none">
<path d="M0 1420 l0 -1420 1420 0 1420 0 0 1420 0 1420 -1420 0 -1420 0 0
-1420z m1107 217 c34 -78 99 -223 143 -322 45 -99 88 -195 95 -212 l14 -33
-55 0 -55 0 -39 85 -39 85 -184 0 -184 0 -33 -77 c-19 -43 -37 -82 -40 -86 -4
-5 -30 -7 -58 -5 l-51 3 125 280 c69 154 139 313 157 353 l31 72 56 0 55 0 62
-143z m881 26 l3 -63 75 0 75 0 -3 -42 -3 -43 -72 -3 -73 -3 0 -159 0 -159 27
-21 c28 -22 49 -22 109 -5 18 6 24 1 33 -26 14 -41 4 -53 -62 -71 -90 -23
-185 23 -207 101 -5 20 -10 105 -10 189 l0 152 -45 0 -45 0 0 45 0 45 45 0 45
0 0 66 0 65 53 -3 52 -3 3 -62z m-253 -103 l0 -45 -46 -5 c-52 -6 -91 -28
-116 -67 -15 -22 -19 -57 -23 -198 l-5 -170 -52 -3 -53 -3 0 265 0 266 50 0
50 0 0 -37 0 -36 23 20 c40 37 107 63 152 60 17 -2 20 -9 20 -47z"/>
<path d="M917 1502 c-37 -86 -67 -160 -67 -164 0 -5 63 -8 140 -8 77 0 140 2
140 5 0 10 -131 310 -139 317 -4 4 -37 -63 -74 -150z"/>
</g>
</svg>
